<?xml version="1.0" encoding="UTF-8" standalone="no"?>
<!-- Created with Inkscape (http://www.inkscape.org/) -->

<svg
   width="8.5in"
   height="11in"
   viewBox="0 0 60.988735 78.926598"
   version="1.1"
   id="svg1"
   inkscape:version="1.4.2 (ebf0e940d0, 2025-05-08)"
   sodipodi:docname="cal.svg"
   xml:space="preserve"
   xmlns:inkscape="http://www.inkscape.org/namespaces/inkscape"
   xmlns:sodipodi="http://sodipodi.sourceforge.net/DTD/sodipodi-0.dtd"
   xmlns="http://www.w3.org/2000/svg"
   xmlns:svg="http://www.w3.org/2000/svg"><sodipodi:namedview
     id="namedview1"
     pagecolor="#ffffff"
     bordercolor="#000000"
     borderopacity="0.25"
     inkscape:showpageshadow="2"
     inkscape:pageopacity="0.0"
     inkscape:pagecheckerboard="true"
     inkscape:deskcolor="#d1d1d1"
     inkscape:document-units="in"
     inkscape:zoom="0.89619809"
     inkscape:cx="397.23361"
     inkscape:cy="560.70193"
     inkscape:window-width="3836"
     inkscape:window-height="2103"
     inkscape:window-x="0"
     inkscape:window-y="0"
     inkscape:window-maximized="0"
     inkscape:current-layer="layer1" /><defs
     id="defs1"><style
       id="style1">.cls-1 { fill: url(#linear-gradient); }
.cls-1, .cls-2, .cls-3, .cls-4 { stroke-width: 0px; }
.cls-2 { fill: #b91f39; }
.cls-3 { fill: #2f85b0; }
.cls-4 { fill: #326130; }
</style><linearGradient
       id="linear-gradient"
       x1="101.65"
       y1="39.47"
       x2="101.65"
       y2="83.66"
       gradientUnits="userSpaceOnUse"><stop
         offset="0"
         stop-color="#8b5a24"
         id="stop1" /><stop
         offset="1"
         stop-color="#441a12"
         id="stop2" /></linearGradient></defs><g
     inkscape:label="Layer 1"
     inkscape:groupmode="layer"
     id="layer1"><g
       id="Logo"
       transform="matrix(0.11855332,0,0,0.11855332,1.7438425,5.6935963)"><path
         class="cls-3"
         d="m 88.75,33.89 c 0.61,-0.1 1.12,-0.1 1.43,-0.1 2.83,0 5.89,1.06 8.77,2.21 0.38,0.15 0.74,0.3 1.09,0.44 0.16,0.06 0.33,0.13 0.5,0.2 l 6.05,-15.67 5.78,14.96 c 0.24,-0.02 0.49,-0.03 0.72,-0.05 h 0.04 c 0,0 0.04,0 0.04,0 h 0.11 c 0.55,-0.03 1.12,-0.05 1.67,-0.05 0.17,0 0.34,0 0.51,0 0.06,0 0.12,0 0.18,0 h 0.11 c 3.91,0.08 7.62,0.52 11.08,1.32 L 113.64,3.02 H 99.3 L 87.25,34.25 c 0.51,-0.16 1.02,-0.29 1.5,-0.36 z"
         id="path2" /><path
         class="cls-2"
         d="m 55.44,38.37 c 0.34,-0.24 6.27,-4.36 6.35,-4.72 h -7.88 c -0.31,0 -0.52,0 -0.64,-0.4 h -0.01 c -0.73,-2.26 -2.41,-7.23 -2.66,-7.36 -0.82,2.5 -1.64,4.99 -2.44,7.48 -0.09,0.28 -0.28,0.29 -0.51,0.29 -1.78,-0.03 -7.09,0.09 -8.11,0.09 0.18,0.16 4.41,3.17 6.47,4.63 0.26,0.18 0.39,0.31 0.27,0.69 -0.66,1.95 -2.28,6.84 -2.28,7.35 0.15,0.05 4.12,-2.8 6.04,-4.16 q 0.77,-0.55 1.54,0 c 0.06,0.04 4.05,2.84 6.01,4.21 0.11,-0.36 -1.61,-5.23 -2.36,-7.44 -0.1,-0.32 -0.08,-0.45 0.21,-0.66 z"
         id="path3" /><path
         class="cls-1"
         d="m 145.41,63.47 -0.08,0.03 c -0.1,-2.32 -2,-7.07 -3.66,-8.58 0.71,-2.13 -0.28,-3.21 -0.85,-3.93 -0.34,-0.42 -1.47,-0.71 -1.97,-0.91 -1.79,-2.72 -5.62,-5.19 -10.99,-6.77 -3.48,-1.02 -7.6,-1.68 -12.25,-1.78 -0.21,0 -0.44,-0.01 -0.69,-0.01 -0.47,0 -0.99,0.02 -1.55,0.05 -4.26,0.23 -10.8,1.18 -12.33,1.18 h -0.13 c -0.64,-0.03 -2.22,-0.73 -4.09,-1.47 -2.2,-0.88 -4.77,-1.81 -6.67,-1.81 -0.2,0 -0.4,0 -0.58,0.03 -1.79,0.22 -6.01,2.91 -7.57,3.77 -1.07,0.59 -4.53,2.07 -5.52,2.7 -0.21,0.07 -0.68,0.07 -0.88,0.14 -2.47,0.82 -4.21,3.65 -4.95,4.14 -0.08,-0.3 -1.01,-1.59 -2.32,-1.59 -0.15,0 -0.31,0.02 -0.47,0.06 -1.59,0.66 -1.48,1.84 -1.48,2.41 -0.31,-0.12 -0.77,-0.69 -1.64,-0.69 -0.31,0 -0.68,0.07 -1.09,0.25 -1.75,0.94 -0.81,2.49 -1.23,3.02 -0.63,0.84 -2.7,2.91 -3.48,4.34 -0.33,0.59 0.03,2.13 -0.22,2.74 -0.69,1.68 -4.4,4.66 -4.75,5.33 -0.12,0.31 0.88,1.31 2.11,2.28 1.13,0.89 2.43,1.73 3.24,1.93 2.27,0 7.14,-0.94 8.2,-1.06 h 0.01 c 0.31,0 0.87,0.21 1.59,0.4 0.63,0.16 1.39,0.32 2.25,0.32 0.23,0 0.48,0 0.72,-0.03 1.11,-0.23 1.85,-0.74 2.46,-1.35 1.01,-1.02 1.59,-2.31 2.74,-2.82 0.88,-0.4 2,-0.69 2.97,-0.69 0.48,0 0.93,0.07 1.29,0.24 -1.83,3.28 -1.43,7.67 -2.07,8.3 -0.71,0.69 -1.27,1.41 -1.71,2.09 -1.57,2.41 -1.79,4.6 -2.55,5.11 -0.21,0.14 -0.48,0.19 -0.78,0.19 -0.86,0 -2.03,-0.41 -2.85,-0.41 -0.2,0 -0.38,0.02 -0.54,0.08 -0.98,0.36 -3.26,2.46 -2.42,2.96 0.26,0.02 4,0.02 7.93,0.02 h 3.41 c 0.1,0 2.19,-1.91 2.29,-1.91 h 5.53 c 0.52,-0.08 0.47,-0.91 2.86,-2.13 2.7,-1.06 1.42,-6.28 4.88,-10.27 0.03,0 1.06,-0.97 1.3,-0.97 1.2,0 3.22,2.18 10.49,2.18 7.27,0 9.03,-2.51 10.03,-2.51 0.5,0 1.5,0.75 1.5,1 -3.25,5.52 4.92,11.72 4.27,12.11 -0.02,0.02 -0.05,0.02 -0.08,0.02 -0.28,0 -1.07,-0.44 -2.26,-0.44 -0.48,0 -1.02,0.07 -1.62,0.27 -1.32,0.44 -2.39,2.11 -1.36,2.62 0.27,0 3.52,0.01 6.75,0.01 1.8,0 3.6,0 4.88,-0.01 0.41,-0.05 0.38,-0.83 0.36,-1.59 -0.01,-0.5 -0.02,-0.99 0.09,-1.25 0.34,-0.44 0.64,-2 1.51,-3.09 0.85,-0.93 1.51,-1.64 2.21,-1.64 0.29,0 0.57,0.13 0.88,0.4 1.53,0.84 5.23,1.3 7.33,2.06 0.87,0.32 1.48,0.67 1.52,1.14 -0.03,0.26 -0.24,0.34 -0.54,0.34 -0.13,0 -0.27,-0.01 -0.42,-0.03 -0.51,-0.07 -1.18,-0.23 -1.83,-0.23 -0.34,0 -0.66,0.05 -0.97,0.16 -0.95,0.36 -1.91,1.39 -2.18,2.14 -0.14,0.41 -0.09,0.73 0.29,0.82 h 8.7 c 1,0 0.63,-2 2.85,-6.44 0.33,-1.25 -2.79,-2.96 -3.25,-5.33 -0.29,-1.55 -0.59,-4.63 -0.63,-7.63 z"
         id="path4"
         style="fill:url(#linear-gradient)" /><g
         id="g6"><path
           class="cls-3"
           d="m 42.16,83.64 c 8.86,0 15.54,-1.75 21.44,-4.99 l 1.27,-3.22 C 62.77,75.75 60.83,76 59.34,76 h -0.71 l -0.69,-0.18 c -1.53,-0.39 -3.33,-1.39 -5.36,-2.99 -0.78,-0.61 -2.03,-1.62 -2.99,-2.95 -2.22,0.51 -4.6,0.79 -7.2,0.79 -17.12,0 -29.08,-11.91 -29.08,-28.97 0,-16.11 12.62,-28.74 28.74,-28.74 9.03,0 17.03,3.6 24.44,10.98 l 5.24,-13.3 C 63.54,3.82 53.19,0 42.39,0 31.01,0 20.43,4.05 12.61,11.41 4.48,19.06 0,29.82 0,41.71 0,66.4 17.34,83.64 42.16,83.64 Z"
           id="path5" /><path
           class="cls-4"
           d="m 42.16,83.64 c 8.86,0 15.54,-1.75 21.44,-4.99 l 1.27,-3.22 C 62.77,75.75 60.83,76 59.34,76 h -0.71 l -0.69,-0.18 c -1.53,-0.39 -3.33,-1.39 -5.36,-2.99 -0.78,-0.61 -2.03,-1.62 -2.99,-2.95 -2.22,0.51 -4.6,0.79 -7.2,0.79 -11.66,0 -20.92,-5.53 -25.65,-14.44 H 2.23 c 5.42,16.66 20.34,27.41 39.93,27.41 z"
           id="path6" /></g></g><rect
       style="fill:none;stroke:#000000;stroke-width:0.837286;stroke-linecap:round;stroke-linejoin:round;stroke-miterlimit:0.5;stroke-dasharray:none;stroke-opacity:1"
       id="rect1"
       width="20.68815"
       height="20.68815"
       x="0.41864297"
       y="0.41864291"
       class="cls-1 " /></g></svg>
